<?xml version="1.0" encoding="utf-8"?>
<!-- Generator: Adobe Illustrator 22.1.0, SVG Export Plug-In . SVG Version: 6.00 Build 0)  -->
<svg version="1.1" id="Layer_1" xmlns="http://www.w3.org/2000/svg" xmlns:xlink="http://www.w3.org/1999/xlink" x="0px" y="0px"
	 viewBox="0 0 1366 768" style="enable-background:new 0 0 1366 768;" xml:space="preserve">
<style type="text/css">
	.st0{display:none;fill:url(#SVGID_1_);}
	.st1{display:none;fill:url(#SVGID_2_);}
	.st2{display:none;fill:url(#SVGID_3_);}
	.st3{display:none;fill:url(#SVGID_4_);}
	.st4{display:none;fill:url(#SVGID_5_);}
	.st5{display:none;fill:url(#SVGID_6_);}
	.st6{display:none;fill:url(#SVGID_7_);}
	.st7{display:none;fill:url(#SVGID_8_);}
	.st8{display:none;fill:url(#SVGID_9_);}
	.st9{display:none;fill:url(#SVGID_10_);}
	.st10{display:none;fill:url(#SVGID_11_);}
	.st11{display:none;fill:url(#SVGID_12_);}
	.st12{display:none;fill:url(#SVGID_13_);}
	.st13{display:none;fill:url(#SVGID_14_);}
	.st14{fill:url(#SVGID_15_);}
	.st15{fill:#E91E63;}
	.st16{fill:#FFFFFF;}
</style>
<linearGradient id="SVGID_1_" gradientUnits="userSpaceOnUse" x1="687.0809" y1="288.6872" x2="687.0809" y2="553">
	<stop  offset="0" style="stop-color:#9E1E63"/>
	<stop  offset="0.9988" style="stop-color:#5B1063"/>
</linearGradient>
<path class="st0" d="M748.7,421.3c-27.5-65.3-15.3-132.7-59.3-132.7c-44,0-34.3,69.4-63.2,132.7c-29.8,65,11.9,122.4,53.2,130.6
	c3.4,0.7,6.7,1,10,1c3,0,6-0.3,9-0.9C739.2,544.4,775.7,485.5,748.7,421.3z"/>
<linearGradient id="SVGID_2_" gradientUnits="userSpaceOnUse" x1="677" y1="329" x2="707" y2="329">
	<stop  offset="0" style="stop-color:#5B1063"/>
	<stop  offset="1" style="stop-color:#3A1063"/>
</linearGradient>
<circle class="st1" cx="692" cy="329" r="15"/>
<linearGradient id="SVGID_3_" gradientUnits="userSpaceOnUse" x1="729" y1="425" x2="729" y2="455">
	<stop  offset="0" style="stop-color:#5B1063"/>
	<stop  offset="1" style="stop-color:#3A1063"/>
</linearGradient>
<circle class="st2" cx="729" cy="440" r="15"/>
<linearGradient id="SVGID_4_" gradientUnits="userSpaceOnUse" x1="670" y1="482" x2="700" y2="482">
	<stop  offset="0" style="stop-color:#5B1063"/>
	<stop  offset="1" style="stop-color:#3A1063"/>
</linearGradient>
<circle class="st3" cx="685" cy="482" r="15"/>
<linearGradient id="SVGID_5_" gradientUnits="userSpaceOnUse" x1="625" y1="474" x2="655" y2="474">
	<stop  offset="0" style="stop-color:#5B1063"/>
	<stop  offset="1" style="stop-color:#3A1063"/>
</linearGradient>
<circle class="st4" cx="640" cy="474" r="15"/>
<linearGradient id="SVGID_6_" gradientUnits="userSpaceOnUse" x1="709" y1="476" x2="739" y2="476">
	<stop  offset="0" style="stop-color:#5B1063"/>
	<stop  offset="1" style="stop-color:#3A1063"/>
</linearGradient>
<circle class="st5" cx="724" cy="476" r="15"/>
<linearGradient id="SVGID_7_" gradientUnits="userSpaceOnUse" x1="687" y1="429" x2="687" y2="459">
	<stop  offset="0" style="stop-color:#5B1063"/>
	<stop  offset="1" style="stop-color:#3A1063"/>
</linearGradient>
<circle class="st6" cx="687" cy="444" r="15"/>
<linearGradient id="SVGID_8_" gradientUnits="userSpaceOnUse" x1="705" y1="392" x2="705" y2="422">
	<stop  offset="0" style="stop-color:#5B1063"/>
	<stop  offset="1" style="stop-color:#3A1063"/>
</linearGradient>
<circle class="st7" cx="705" cy="407" r="15"/>
<linearGradient id="SVGID_9_" gradientUnits="userSpaceOnUse" x1="647" y1="421" x2="647" y2="451">
	<stop  offset="0" style="stop-color:#5B1063"/>
	<stop  offset="1" style="stop-color:#3A1063"/>
</linearGradient>
<circle class="st8" cx="647" cy="436" r="15"/>
<linearGradient id="SVGID_10_" gradientUnits="userSpaceOnUse" x1="709" y1="353" x2="709" y2="383">
	<stop  offset="0" style="stop-color:#5B1063"/>
	<stop  offset="1" style="stop-color:#3A1063"/>
</linearGradient>
<circle class="st9" cx="709" cy="368" r="15"/>
<linearGradient id="SVGID_11_" gradientUnits="userSpaceOnUse" x1="666" y1="383" x2="666" y2="413">
	<stop  offset="0" style="stop-color:#5B1063"/>
	<stop  offset="1" style="stop-color:#3A1063"/>
</linearGradient>
<circle class="st10" cx="666" cy="398" r="15"/>
<linearGradient id="SVGID_12_" gradientUnits="userSpaceOnUse" x1="670" y1="345" x2="670" y2="375">
	<stop  offset="0" style="stop-color:#5B1063"/>
	<stop  offset="1" style="stop-color:#3A1063"/>
</linearGradient>
<circle class="st11" cx="670" cy="360" r="15"/>
<linearGradient id="SVGID_13_" gradientUnits="userSpaceOnUse" x1="687" y1="520" x2="717" y2="520">
	<stop  offset="0" style="stop-color:#5B1063"/>
	<stop  offset="1" style="stop-color:#3A1063"/>
</linearGradient>
<circle class="st12" cx="702" cy="520" r="15"/>
<linearGradient id="SVGID_14_" gradientUnits="userSpaceOnUse" x1="647" y1="520" x2="677" y2="520">
	<stop  offset="0" style="stop-color:#5B1063"/>
	<stop  offset="1" style="stop-color:#3A1063"/>
</linearGradient>
<circle class="st13" cx="662" cy="520" r="15"/>
<linearGradient id="SVGID_15_" gradientUnits="userSpaceOnUse" x1="714.661" y1="217.968" x2="714.661" y2="645">
	<stop  offset="0" style="stop-color:#E91E63"/>
	<stop  offset="1" style="stop-color:#961E63"/>
</linearGradient>
<path class="st14" d="M869,462.1c0,86.8-73.9,182.9-158.6,182.9s-150-104.6-150-171.9c0-52.1,9.1-74.5,32.7-112.7
	c21.9-35.5,42.9-78.9,48.9-107.1c2.8-13.1,15.5-24.8,30.3-30.7c16.9-6.8,41.3-3.2,41.3-3.2s48.8-10.2,68,25.5
	c10.8,20.1,24,78.2,51.8,115.5C857.2,392.3,869,431.3,869,462.1z"/>
<path class="st15" d="M736.5,218.3c-6.9-4-11.5-9.2-21-11.7c-0.8-0.2-1.5-0.9-2-0.9c-0.5,0-1.2,0.7-1.8,0.9
	c-10.5,3.4-14.1,8.1-21.2,12c7.8,0.2,14.8,2.6,23,2.6C721,221.1,729.5,218.8,736.5,218.3z"/>
<path class="st16" d="M711.9,582.5c-10.9-5.4-19.8-14.2-27.7-23.5c-16.3-19.1-29.9-41-36.4-65.3c-9.2-34.4-3.3-72,12.8-103.8
	c9.2-18.2,21.5-34.7,32.1-52.1c10.6-17.4,19.7-36.4,21.4-56.8L711.9,582.5z"/>
</svg>
